<mxfile host="app.diagrams.net" modified="2021-08-25T21:01:50.747Z" agent="5.0 (Windows NT 10.0; Win64; x64) AppleWebKit/537.36 (KHTML, like Gecko) Chrome/92.0.4515.159 Safari/537.36" etag="knaUAjHQXJBY-NtYyX6Y" version="14.9.9" type="github">
  <diagram name="Page-1" id="c7488fd3-1785-93aa-aadb-54a6760d102a">
    <mxGraphModel dx="1422" dy="762" grid="1" gridSize="10" guides="1" tooltips="1" connect="1" arrows="1" fold="1" page="1" pageScale="1" pageWidth="1100" pageHeight="850" background="none" math="0" shadow="0">
      <root>
        <mxCell id="0" />
        <mxCell id="1" parent="0" />
        <mxCell id="PBQIrCG4Gqzkh5hXTl21-2" value="Начало" style="ellipse;whiteSpace=wrap;html=1;aspect=fixed;" vertex="1" parent="1">
          <mxGeometry x="360" y="100" width="80" height="80" as="geometry" />
        </mxCell>
        <mxCell id="PBQIrCG4Gqzkh5hXTl21-3" value="Окончание" style="ellipse;whiteSpace=wrap;html=1;aspect=fixed;" vertex="1" parent="1">
          <mxGeometry x="360" y="580" width="80" height="80" as="geometry" />
        </mxCell>
        <mxCell id="PBQIrCG4Gqzkh5hXTl21-4" value="Объявление переменных: A, B, C" style="rounded=0;whiteSpace=wrap;html=1;" vertex="1" parent="1">
          <mxGeometry x="340" y="220" width="120" height="60" as="geometry" />
        </mxCell>
        <mxCell id="PBQIrCG4Gqzkh5hXTl21-5" value="A &amp;gt; B" style="rhombus;whiteSpace=wrap;html=1;" vertex="1" parent="1">
          <mxGeometry x="360" y="320" width="80" height="80" as="geometry" />
        </mxCell>
        <mxCell id="PBQIrCG4Gqzkh5hXTl21-6" value="C &amp;gt; B" style="rhombus;whiteSpace=wrap;html=1;" vertex="1" parent="1">
          <mxGeometry x="480" y="400" width="80" height="80" as="geometry" />
        </mxCell>
        <mxCell id="PBQIrCG4Gqzkh5hXTl21-7" value="A &amp;gt; C" style="rhombus;whiteSpace=wrap;html=1;" vertex="1" parent="1">
          <mxGeometry x="240" y="400" width="80" height="80" as="geometry" />
        </mxCell>
        <mxCell id="PBQIrCG4Gqzkh5hXTl21-8" value="Напечатать A" style="rounded=0;whiteSpace=wrap;html=1;" vertex="1" parent="1">
          <mxGeometry x="120" y="480" width="120" height="60" as="geometry" />
        </mxCell>
        <mxCell id="PBQIrCG4Gqzkh5hXTl21-9" value="Напечатать B" style="rounded=0;whiteSpace=wrap;html=1;" vertex="1" parent="1">
          <mxGeometry x="560" y="480" width="120" height="60" as="geometry" />
        </mxCell>
        <mxCell id="PBQIrCG4Gqzkh5hXTl21-10" value="Напечатать C" style="rounded=0;whiteSpace=wrap;html=1;" vertex="1" parent="1">
          <mxGeometry x="340" y="480" width="120" height="60" as="geometry" />
        </mxCell>
        <mxCell id="PBQIrCG4Gqzkh5hXTl21-13" value="" style="endArrow=classic;html=1;entryX=0.5;entryY=0;entryDx=0;entryDy=0;exitX=0;exitY=0.5;exitDx=0;exitDy=0;jumpSize=6;strokeWidth=1;rounded=0;" edge="1" parent="1" source="PBQIrCG4Gqzkh5hXTl21-5" target="PBQIrCG4Gqzkh5hXTl21-7">
          <mxGeometry relative="1" as="geometry">
            <mxPoint x="360" y="390" as="sourcePoint" />
            <mxPoint x="270" y="390" as="targetPoint" />
            <Array as="points">
              <mxPoint x="280" y="360" />
            </Array>
          </mxGeometry>
        </mxCell>
        <mxCell id="PBQIrCG4Gqzkh5hXTl21-14" value="true" style="edgeLabel;resizable=0;html=1;align=center;verticalAlign=middle;fontSize=13;" connectable="0" vertex="1" parent="PBQIrCG4Gqzkh5hXTl21-13">
          <mxGeometry relative="1" as="geometry">
            <mxPoint x="20" y="-20" as="offset" />
          </mxGeometry>
        </mxCell>
        <mxCell id="PBQIrCG4Gqzkh5hXTl21-15" value="" style="endArrow=classic;html=1;entryX=0.5;entryY=0;entryDx=0;entryDy=0;exitX=0;exitY=0.5;exitDx=0;exitDy=0;jumpSize=6;strokeWidth=1;rounded=0;" edge="1" parent="1" target="PBQIrCG4Gqzkh5hXTl21-8">
          <mxGeometry relative="1" as="geometry">
            <mxPoint x="240" y="440" as="sourcePoint" />
            <mxPoint x="160" y="480" as="targetPoint" />
            <Array as="points">
              <mxPoint x="180" y="440" />
            </Array>
          </mxGeometry>
        </mxCell>
        <mxCell id="PBQIrCG4Gqzkh5hXTl21-16" value="true" style="edgeLabel;resizable=0;html=1;align=center;verticalAlign=middle;fontSize=13;" connectable="0" vertex="1" parent="PBQIrCG4Gqzkh5hXTl21-15">
          <mxGeometry relative="1" as="geometry">
            <mxPoint x="20" y="-20" as="offset" />
          </mxGeometry>
        </mxCell>
        <mxCell id="PBQIrCG4Gqzkh5hXTl21-17" value="" style="endArrow=classic;html=1;entryX=0.5;entryY=0;entryDx=0;entryDy=0;exitX=0;exitY=0.5;exitDx=0;exitDy=0;jumpSize=6;strokeWidth=1;rounded=0;" edge="1" parent="1">
          <mxGeometry relative="1" as="geometry">
            <mxPoint x="480" y="440" as="sourcePoint" />
            <mxPoint x="420" y="480" as="targetPoint" />
            <Array as="points">
              <mxPoint x="420" y="440" />
            </Array>
          </mxGeometry>
        </mxCell>
        <mxCell id="PBQIrCG4Gqzkh5hXTl21-18" value="true" style="edgeLabel;resizable=0;html=1;align=center;verticalAlign=middle;fontSize=13;" connectable="0" vertex="1" parent="PBQIrCG4Gqzkh5hXTl21-17">
          <mxGeometry relative="1" as="geometry">
            <mxPoint x="20" y="-20" as="offset" />
          </mxGeometry>
        </mxCell>
        <mxCell id="PBQIrCG4Gqzkh5hXTl21-19" value="" style="endArrow=classic;html=1;fontSize=13;strokeWidth=1;exitX=0.5;exitY=1;exitDx=0;exitDy=0;entryX=0.5;entryY=0;entryDx=0;entryDy=0;" edge="1" parent="1" source="PBQIrCG4Gqzkh5hXTl21-2" target="PBQIrCG4Gqzkh5hXTl21-4">
          <mxGeometry width="50" height="50" relative="1" as="geometry">
            <mxPoint x="680" y="540" as="sourcePoint" />
            <mxPoint x="730" y="490" as="targetPoint" />
          </mxGeometry>
        </mxCell>
        <mxCell id="PBQIrCG4Gqzkh5hXTl21-20" value="" style="endArrow=classic;html=1;fontSize=13;strokeWidth=1;exitX=0.5;exitY=1;exitDx=0;exitDy=0;entryX=0.5;entryY=0;entryDx=0;entryDy=0;" edge="1" parent="1" source="PBQIrCG4Gqzkh5hXTl21-4" target="PBQIrCG4Gqzkh5hXTl21-5">
          <mxGeometry width="50" height="50" relative="1" as="geometry">
            <mxPoint x="410" y="190" as="sourcePoint" />
            <mxPoint x="410" y="230" as="targetPoint" />
            <Array as="points" />
          </mxGeometry>
        </mxCell>
        <mxCell id="PBQIrCG4Gqzkh5hXTl21-22" value="" style="endArrow=classic;html=1;entryX=0.5;entryY=0;entryDx=0;entryDy=0;exitX=1;exitY=0.5;exitDx=0;exitDy=0;jumpSize=6;strokeWidth=1;rounded=0;" edge="1" parent="1" source="PBQIrCG4Gqzkh5hXTl21-5">
          <mxGeometry relative="1" as="geometry">
            <mxPoint x="600" y="360" as="sourcePoint" />
            <mxPoint x="520" y="400" as="targetPoint" />
            <Array as="points">
              <mxPoint x="520" y="360" />
            </Array>
          </mxGeometry>
        </mxCell>
        <mxCell id="PBQIrCG4Gqzkh5hXTl21-23" value="false" style="edgeLabel;resizable=0;html=1;align=center;verticalAlign=middle;fontSize=13;" connectable="0" vertex="1" parent="PBQIrCG4Gqzkh5hXTl21-22">
          <mxGeometry relative="1" as="geometry">
            <mxPoint x="-20" y="-20" as="offset" />
          </mxGeometry>
        </mxCell>
        <mxCell id="PBQIrCG4Gqzkh5hXTl21-24" value="" style="endArrow=classic;html=1;entryX=0.5;entryY=0;entryDx=0;entryDy=0;exitX=1;exitY=0.5;exitDx=0;exitDy=0;jumpSize=6;strokeWidth=1;rounded=0;" edge="1" parent="1" target="PBQIrCG4Gqzkh5hXTl21-9">
          <mxGeometry relative="1" as="geometry">
            <mxPoint x="560" y="440" as="sourcePoint" />
            <mxPoint x="640" y="480" as="targetPoint" />
            <Array as="points">
              <mxPoint x="620" y="440" />
            </Array>
          </mxGeometry>
        </mxCell>
        <mxCell id="PBQIrCG4Gqzkh5hXTl21-25" value="false" style="edgeLabel;resizable=0;html=1;align=center;verticalAlign=middle;fontSize=13;" connectable="0" vertex="1" parent="PBQIrCG4Gqzkh5hXTl21-24">
          <mxGeometry relative="1" as="geometry">
            <mxPoint x="-20" y="-20" as="offset" />
          </mxGeometry>
        </mxCell>
        <mxCell id="PBQIrCG4Gqzkh5hXTl21-26" value="" style="endArrow=classic;html=1;entryX=0.5;entryY=0;entryDx=0;entryDy=0;exitX=1;exitY=0.5;exitDx=0;exitDy=0;jumpSize=6;strokeWidth=1;rounded=0;" edge="1" parent="1">
          <mxGeometry relative="1" as="geometry">
            <mxPoint x="320" y="440" as="sourcePoint" />
            <mxPoint x="380" y="480" as="targetPoint" />
            <Array as="points">
              <mxPoint x="380" y="440" />
            </Array>
          </mxGeometry>
        </mxCell>
        <mxCell id="PBQIrCG4Gqzkh5hXTl21-27" value="false" style="edgeLabel;resizable=0;html=1;align=center;verticalAlign=middle;fontSize=13;" connectable="0" vertex="1" parent="PBQIrCG4Gqzkh5hXTl21-26">
          <mxGeometry relative="1" as="geometry">
            <mxPoint x="-20" y="-20" as="offset" />
          </mxGeometry>
        </mxCell>
        <mxCell id="PBQIrCG4Gqzkh5hXTl21-28" value="" style="endArrow=none;html=1;fontSize=13;strokeWidth=1;exitX=0.5;exitY=1;exitDx=0;exitDy=0;edgeStyle=orthogonalEdgeStyle;entryX=0.5;entryY=1;entryDx=0;entryDy=0;rounded=0;" edge="1" parent="1" source="PBQIrCG4Gqzkh5hXTl21-8" target="PBQIrCG4Gqzkh5hXTl21-9">
          <mxGeometry width="50" height="50" relative="1" as="geometry">
            <mxPoint x="680" y="540" as="sourcePoint" />
            <mxPoint x="180" y="570" as="targetPoint" />
            <Array as="points">
              <mxPoint x="180" y="560" />
              <mxPoint x="620" y="560" />
            </Array>
          </mxGeometry>
        </mxCell>
        <mxCell id="PBQIrCG4Gqzkh5hXTl21-31" value="" style="endArrow=classic;html=1;fontSize=13;strokeWidth=1;exitX=0.5;exitY=1;exitDx=0;exitDy=0;entryX=0.5;entryY=0;entryDx=0;entryDy=0;" edge="1" parent="1">
          <mxGeometry width="50" height="50" relative="1" as="geometry">
            <mxPoint x="399.5" y="540" as="sourcePoint" />
            <mxPoint x="399.5" y="580" as="targetPoint" />
            <Array as="points" />
          </mxGeometry>
        </mxCell>
      </root>
    </mxGraphModel>
  </diagram>
</mxfile>
